<?xml version="1.0" encoding="utf-8"?>
<!-- Generator: Adobe Illustrator 16.0.0, SVG Export Plug-In . SVG Version: 6.00 Build 0)  -->
<!DOCTYPE svg PUBLIC "-//W3C//DTD SVG 1.1//EN" "http://www.w3.org/Graphics/SVG/1.1/DTD/svg11.dtd">
<svg version="1.1" id="Layer_1" xmlns="http://www.w3.org/2000/svg" xmlns:xlink="http://www.w3.org/1999/xlink" x="0px" y="0px"
	 width="82.548px" height="12.369px" viewBox="-2.276 1.315 82.548 12.369" enable-background="new -2.276 1.315 82.548 12.369"
	 xml:space="preserve">
<g>
	<circle fill="#565656" cx="6.185" cy="7.5" r="6.185"/>
	<circle fill="#565656" cx="23.16" cy="7.5" r="6.185"/>
	<circle fill="#565656" cx="40.221" cy="7.5" r="6.185"/>
	<circle fill="#565656" cx="57.111" cy="7.5" r="6.185"/>
	<circle fill="#565656" cx="74.086" cy="7.5" r="6.185"/>
</g>
<g display="none">
	<circle display="inline" fill="#F1F2F2" cx="23.16" cy="7.5" r="6.185"/>
	<circle display="inline" fill="#F1F2F2" cx="6.185" cy="7.5" r="6.185"/>
	<circle display="inline" fill="#F1F2F2" cx="57.111" cy="7.5" r="6.185"/>
	<circle display="inline" fill="#F1F2F2" cx="40.136" cy="7.5" r="6.185"/>
	<circle display="inline" fill="#F1F2F2" cx="74.087" cy="7.5" r="6.185"/>
</g>
<g display="none">
	<circle display="inline" fill="#565656" cx="6.185" cy="7.5" r="6.185"/>
	<g display="inline">
		<circle fill="#F1F2F2" cx="23.16" cy="7.5" r="6.185"/>
		<circle fill="#F1F2F2" cx="57.111" cy="7.5" r="6.185"/>
		<circle fill="#F1F2F2" cx="40.136" cy="7.5" r="6.185"/>
		<circle fill="#F1F2F2" cx="74.087" cy="7.5" r="6.185"/>
	</g>
</g>
<g display="none">
	<g display="inline">
		<circle fill="#565656" cx="6.185" cy="7.5" r="6.185"/>
		<circle fill="#565656" cx="23.16" cy="7.5" r="6.185"/>
	</g>
	<g display="inline">
		<circle fill="#F1F2F2" cx="57.111" cy="7.5" r="6.185"/>
		<circle fill="#F1F2F2" cx="40.136" cy="7.5" r="6.185"/>
		<circle fill="#F1F2F2" cx="74.087" cy="7.5" r="6.185"/>
	</g>
</g>
<g display="none">
	<g display="inline">
		<circle fill="#565656" cx="6.185" cy="7.5" r="6.185"/>
		<circle fill="#565656" cx="23.16" cy="7.5" r="6.185"/>
		<circle fill="#565656" cx="40.221" cy="7.5" r="6.185"/>
	</g>
	<g display="inline">
		<circle fill="#F1F2F2" cx="57.111" cy="7.5" r="6.185"/>
		<circle fill="#F1F2F2" cx="74.087" cy="7.5" r="6.185"/>
	</g>
</g>
<g display="none">
	<g display="inline">
		<circle fill="#565656" cx="6.185" cy="7.5" r="6.185"/>
		<circle fill="#565656" cx="23.16" cy="7.5" r="6.185"/>
		<circle fill="#565656" cx="40.221" cy="7.5" r="6.185"/>
		<circle fill="#565656" cx="57.111" cy="7.5" r="6.185"/>
	</g>
	<circle display="inline" fill="#F1F2F2" cx="74.087" cy="7.5" r="6.185"/>
</g>
<g display="none">
	<path display="inline" fill="#565656" d="M-0.043,7.516c0.01,3.416,2.785,6.178,6.201,6.169c3.416-0.01,6.178-2.786,6.168-6.201
		L-0.043,7.516z"/>
	<circle display="inline" fill="#F1F2F2" cx="23.203" cy="7.5" r="6.185"/>
	<circle display="inline" fill="#F1F2F2" cx="57.154" cy="7.5" r="6.185"/>
	<circle display="inline" fill="#F1F2F2" cx="40.179" cy="7.5" r="6.185"/>
	<circle display="inline" fill="#F1F2F2" cx="74.13" cy="7.5" r="6.185"/>
	<path display="inline" fill="#F1F2F2" d="M-0.043,7.516l12.369-0.032c-0.009-3.416-2.784-6.178-6.2-6.168
		C2.71,1.324-0.052,4.101-0.043,7.516z"/>
</g>
<g display="none">
	<circle display="inline" fill="#565656" cx="6.185" cy="7.5" r="6.185"/>
	<path display="inline" fill="#565656" d="M16.976,7.516c0.01,3.416,2.785,6.178,6.201,6.169s6.178-2.786,6.168-6.201L16.976,7.516z
		"/>
	<circle display="inline" fill="#F1F2F2" cx="57.111" cy="7.5" r="6.185"/>
	<circle display="inline" fill="#F1F2F2" cx="40.136" cy="7.5" r="6.185"/>
	<circle display="inline" fill="#F1F2F2" cx="74.087" cy="7.5" r="6.185"/>
	<path display="inline" fill="#F1F2F2" d="M16.976,7.516l12.369-0.032c-0.009-3.415-2.784-6.177-6.2-6.168
		S16.967,4.101,16.976,7.516z"/>
</g>
<g display="none">
	<circle display="inline" fill="#565656" cx="6.185" cy="7.5" r="6.185"/>
	<circle display="inline" fill="#565656" cx="23.16" cy="7.5" r="6.185"/>
	<path display="inline" fill="#565656" d="M34.037,7.516c0.01,3.416,2.785,6.178,6.201,6.169s6.178-2.786,6.168-6.201L34.037,7.516z
		"/>
	<circle display="inline" fill="#F1F2F2" cx="57.111" cy="7.5" r="6.185"/>
	<circle display="inline" fill="#F1F2F2" cx="74.087" cy="7.5" r="6.185"/>
	<path display="inline" fill="#F1F2F2" d="M34.037,7.516l12.369-0.032c-0.009-3.415-2.784-6.177-6.2-6.168
		S34.028,4.101,34.037,7.516z"/>
</g>
<g display="none">
	<circle display="inline" fill="#565656" cx="6.185" cy="7.5" r="6.185"/>
	<circle display="inline" fill="#565656" cx="23.16" cy="7.5" r="6.185"/>
	<circle display="inline" fill="#565656" cx="40.221" cy="7.5" r="6.185"/>
	<circle display="inline" fill="#565656" cx="57.111" cy="7.5" r="6.185"/>
	<path display="inline" fill="#565656" d="M67.902,7.516c0.01,3.416,2.785,6.178,6.201,6.169s6.178-2.786,6.168-6.201L67.902,7.516z
		"/>
	<path display="inline" fill="#F1F2F2" d="M67.902,7.516l12.369-0.032c-0.009-3.415-2.784-6.177-6.2-6.168
		S67.894,4.101,67.902,7.516z"/>
</g>
<g display="none">
	<circle display="inline" fill="#565656" cx="6.185" cy="7.5" r="6.185"/>
	<circle display="inline" fill="#565656" cx="23.16" cy="7.5" r="6.185"/>
	<circle display="inline" fill="#565656" cx="40.221" cy="7.5" r="6.185"/>
	<path display="inline" fill="#565656" d="M50.927,7.516c0.01,3.416,2.785,6.178,6.201,6.169s6.178-2.786,6.168-6.201L50.927,7.516z
		"/>
	<circle display="inline" fill="#F1F2F2" cx="74.087" cy="7.5" r="6.185"/>
	<path display="inline" fill="#F1F2F2" d="M50.927,7.516l12.369-0.032c-0.009-3.415-2.784-6.177-6.2-6.168
		S50.918,4.101,50.927,7.516z"/>
</g>
</svg>
