<?xml version="1.0" encoding="utf-8"?>
<!-- Generator: Adobe Illustrator 16.0.0, SVG Export Plug-In . SVG Version: 6.00 Build 0)  -->
<!DOCTYPE svg PUBLIC "-//W3C//DTD SVG 1.1//EN" "http://www.w3.org/Graphics/SVG/1.1/DTD/svg11.dtd">
<svg version="1.1" id="Layer_1" xmlns="http://www.w3.org/2000/svg" xmlns:xlink="http://www.w3.org/1999/xlink" x="0px" y="0px"
	 width="19.837px" height="27.278px" viewBox="0 0 19.837 27.278" enable-background="new 0 0 19.837 27.278" xml:space="preserve">
<g>
	<path fill="#FF5000" d="M16.896,15.076c-3.09,3.093-7.325,3.868-9.464,1.736c-2.132-2.137-1.352-6.374,1.736-9.462
		c3.093-3.091,7.327-3.869,9.464-1.735C20.768,7.75,19.989,11.987,16.896,15.076"/>
	<path fill="#FF5000" d="M13.132,26.896c-2.334-0.854-3.756-2.852-3.166-4.463c0.587-1.615,2.959-2.231,5.292-1.379
		c2.336,0.85,3.757,2.847,3.17,4.457C17.839,27.129,15.471,27.748,13.132,26.896"/>
	<path fill="#FF5000" d="M6.229,4.512c0,2.492-1.392,4.511-3.112,4.511S0,7.004,0,4.512C0,2.019,1.396,0,3.116,0
		S6.229,2.021,6.229,4.512"/>
</g>
</svg>
