<svg id="Layer_1" data-name="Layer 1" xmlns="http://www.w3.org/2000/svg" viewBox="0 0 351.24 43.83"><defs><style>.cls-1{fill:#e6e7e8;}</style></defs><path class="cls-1" d="M210.79,231.64h18.66v7.06H202V196.05h8.79Z" transform="translate(-202 -195.46)"/><path class="cls-1" d="M259.13,229.92H243.72l-2.93,8.78h-9.35l15.88-42.65h8.14l16,42.65h-9.35Zm-13-7.12h10.66l-5.36-16Z" transform="translate(-202 -195.46)"/><path class="cls-1" d="M291.21,223.09h-7V238.7h-8.79V196.05h15.85q7.56,0,11.66,3.37t4.11,9.52a13.11,13.11,0,0,1-1.89,7.28,12.89,12.89,0,0,1-5.73,4.64l9.23,17.43v.41H299.2Zm-7-7.12h7.09a7.27,7.27,0,0,0,5.13-1.68,6,6,0,0,0,1.82-4.65,6.4,6.4,0,0,0-1.72-4.74c-1.14-1.16-2.89-1.73-5.26-1.73H284.2Z" transform="translate(-202 -195.46)"/><path class="cls-1" d="M337.79,229.92H322.38l-2.93,8.78H310.1L326,196.05h8.15l16,42.65h-9.34Zm-13-7.12h10.66l-5.36-16Z" transform="translate(-202 -195.46)"/><path class="cls-1" d="M376.2,227.51a4.51,4.51,0,0,0-1.76-3.82,22.78,22.78,0,0,0-6.33-2.81,44.92,44.92,0,0,1-7.24-2.92q-7.26-3.92-7.26-10.57a10.3,10.3,0,0,1,1.95-6.17,12.58,12.58,0,0,1,5.59-4.23,21,21,0,0,1,8.19-1.53,19,19,0,0,1,8.14,1.66,12.94,12.94,0,0,1,5.56,4.67,12.3,12.3,0,0,1,2,6.86h-8.78a5.75,5.75,0,0,0-1.85-4.56,7.61,7.61,0,0,0-5.19-1.63,8.11,8.11,0,0,0-5,1.37,4.28,4.28,0,0,0-1.78,3.59,4.13,4.13,0,0,0,2.09,3.48,23.56,23.56,0,0,0,6.17,2.64q7.5,2.25,10.93,5.59a11.16,11.16,0,0,1,3.42,8.32,10.24,10.24,0,0,1-4.19,8.69q-4.19,3.15-11.27,3.15a21.81,21.81,0,0,1-9-1.8,14.25,14.25,0,0,1-6.17-4.94,12.68,12.68,0,0,1-2.12-7.26h8.82q0,7.05,8.44,7.06a8.19,8.19,0,0,0,4.89-1.28A4.15,4.15,0,0,0,376.2,227.51Z" transform="translate(-202 -195.46)"/><path class="cls-1" d="M423.25,196.05v28.09q0,7-4.38,11.08t-12,4.07q-7.47,0-11.87-3.95t-4.48-10.87V196.05h8.79V224.2c0,2.8.67,4.83,2,6.11a7.71,7.71,0,0,0,5.55,1.92q7.41,0,7.53-7.79V196.05Z" transform="translate(-202 -195.46)"/><path class="cls-1" d="M446.24,223.09h-7V238.7h-8.79V196.05H446.3q7.56,0,11.66,3.37t4.1,9.52a13.11,13.11,0,0,1-1.89,7.28,12.8,12.8,0,0,1-5.72,4.64l9.23,17.43v.41h-9.44Zm-7-7.12h7.09a7.27,7.27,0,0,0,5.13-1.68,6,6,0,0,0,1.82-4.65,6.44,6.44,0,0,0-1.72-4.74c-1.14-1.16-2.89-1.73-5.26-1.73h-7.06Z" transform="translate(-202 -195.46)"/><path class="cls-1" d="M494.41,220.22H477.53v11.42h19.81v7.06h-28.6V196.05h28.54v7.12H477.53v10.16h16.88Z" transform="translate(-202 -195.46)"/><path class="cls-1" d="M518.4,223.85H501.91V217H518.4Z" transform="translate(-202 -195.46)"/><path class="cls-1" d="M544.65,221.65a10.67,10.67,0,0,1-7.73,3.26,11.42,11.42,0,0,1-9-3.89c-2.27-2.58-3.4-6.08-3.4-10.47a16.34,16.34,0,0,1,1.83-7.69,13.44,13.44,0,0,1,5.11-5.45,14.18,14.18,0,0,1,7.38-1.95,13.58,13.58,0,0,1,7.5,2.11,13.87,13.87,0,0,1,5.1,6.07,21.76,21.76,0,0,1,1.85,9.05v3.13q0,10.67-5.31,16.76t-15,6.51l-2.08,0v-7.06l1.88,0Q543.74,231.52,544.65,221.65ZM539,218.43a5.94,5.94,0,0,0,3.53-1.05,7.24,7.24,0,0,0,2.24-2.55v-3.49a11.67,11.67,0,0,0-1.64-6.68,5.09,5.09,0,0,0-4.4-2.37,5,5,0,0,0-4.19,2.33,9.92,9.92,0,0,0-1.64,5.84,9.66,9.66,0,0,0,1.6,5.73A5.21,5.21,0,0,0,539,218.43Z" transform="translate(-202 -195.46)"/></svg>