<?xml version="1.0" encoding="utf-8"?>
<!-- Generator: Adobe Illustrator 16.0.0, SVG Export Plug-In . SVG Version: 6.00 Build 0)  -->
<!DOCTYPE svg PUBLIC "-//W3C//DTD SVG 1.1//EN" "http://www.w3.org/Graphics/SVG/1.1/DTD/svg11.dtd">
<svg version="1.1" id="Layer_1" xmlns="http://www.w3.org/2000/svg" xmlns:xlink="http://www.w3.org/1999/xlink" x="0px" y="0px"
	 width="239.671px" height="29.207px" viewBox="0 0 239.671 29.207" enable-background="new 0 0 239.671 29.207"
	 xml:space="preserve">
<g>
	<g>
		<rect y="3.486" width="4.107" height="22.435"/>
		<polygon points="28.091,3.488 28.091,25.921 24.403,25.921 11.996,10.013 11.996,25.921 7.891,25.921 7.891,3.488 12.112,3.488 
			24.096,18.845 24.096,3.488 		"/>
		<path d="M51.743,10.109c-0.519-1.225-1.283-2.305-2.236-3.217c-3.551-3.344-8.871-3.406-9.762-3.406h-7.277v22.439h7.393
			c1.081,0,6.232-0.191,9.677-3.473c0.954-0.908,1.686-1.988,2.205-3.217c0.572-1.33,0.858-2.871,0.858-4.517
			C52.602,13.012,52.315,11.473,51.743,10.109 M48.086,17.675c-0.297,0.703-0.742,1.342-1.304,1.896
			c-2.48,2.369-6.688,2.316-6.805,2.316h-3.221V7.285h3.221c0.033,0,1.071-0.031,2.459,0.229c1.272,0.24,3.021,0.796,4.314,2.021
			c0.561,0.525,1.007,1.195,1.304,1.93c0.381,0.848,0.562,2.111,0.562,3.253C48.617,15.833,48.436,16.828,48.086,17.675"/>
		<path d="M113.963,19.189l2.682,2.643c-0.824,1-1.824,1.848-2.959,2.504c-1.759,1.021-3.76,1.586-5.793,1.586
			c-1.556,0-3.031-0.318-4.43-0.902c-1.383-0.563-2.605-1.363-3.635-2.426c-1.059-1.023-1.875-2.24-2.436-3.6
			c-0.597-1.404-0.904-2.859-0.904-4.388c0-1.558,0.309-3.012,0.904-4.416c0.561-1.363,1.377-2.582,2.436-3.601
			c1.029-1.06,2.252-1.869,3.635-2.423c0.713-0.299,1.449-0.527,2.208-0.684c0.716-0.144,1.464-0.218,2.222-0.218
			c0.455,0,0.914,0.031,1.367,0.087c1.309,0.15,2.576,0.524,3.758,1.12c1.535,0.772,2.557,1.511,3.627,2.873l-2.682,2.627
			c-0.697-0.899-1.596-1.644-2.627-2.177c-1.102-0.525-2.253-0.803-3.443-0.803c-2.065,0-3.965,0.771-5.402,2.234
			c-1.465,1.424-2.252,3.323-2.252,5.375c0,2.023,0.787,3.923,2.252,5.347c1.438,1.465,3.337,2.236,5.402,2.236
			c1.349,0,2.717-0.373,3.883-1.049C112.629,20.625,113.371,19.966,113.963,19.189"/>
		<path d="M140.207,10.212c-0.565-1.356-1.414-2.574-2.461-3.597c-1.07-1.062-2.295-1.864-3.658-2.42
			c-1.426-0.586-2.936-0.896-4.483-0.896c-1.541,0-3.062,0.31-4.476,0.896c-1.362,0.556-2.6,1.358-3.668,2.42
			c-1.037,1.021-1.864,2.236-2.463,3.597c-0.597,1.401-0.879,2.854-0.879,4.38c0,1.554,0.282,3.007,0.879,4.408
			c0.599,1.359,1.426,2.574,2.463,3.596c1.068,1.063,2.306,1.865,3.668,2.422c1.414,0.588,2.935,0.906,4.476,0.906
			c1.551,0,3.06-0.318,4.483-0.906c1.363-0.557,2.588-1.359,3.658-2.422c1.047-1.021,1.896-2.234,2.461-3.596
			c0.607-1.4,0.922-2.854,0.922-4.408C141.128,13.066,140.814,11.613,140.207,10.212 M135.063,19.958
			c-1.444,1.463-3.405,2.236-5.459,2.236c-2.056,0-4.004-0.773-5.461-2.236c-1.444-1.422-2.242-3.318-2.242-5.367
			c0-2.021,0.798-3.904,2.242-5.337c1.457-1.464,3.405-2.235,5.461-2.235c2.054,0,4.015,0.771,5.459,2.235
			c1.457,1.433,2.272,3.315,2.272,5.337C137.335,16.64,136.52,18.537,135.063,19.958"/>
		<path d="M87.732,3.488h-4.476l-8.09,18.742l-1.602,3.689h4.292l2.091-4.729h11.227l2.056,4.729h4.203L87.732,3.488z M81.43,17.81
			l4.131-9.508l4.146,9.508H81.43z"/>
		<path d="M74.373,22.822l-4.36-6.521c0.951-0.219,2.137-0.699,3.121-1.646c0.572-0.564,1.027-1.194,1.313-1.957
			c0.315-0.787,0.509-1.698,0.509-2.717c0-2.584-1.25-4.641-3.474-5.709c-1.566-0.752-3.068-0.787-3.257-0.787H54.964v22.437h4.148
			V6.956h9.08c0.062,0,0.93,0.032,1.758,0.44c1.014,0.504,1.501,1.33,1.501,2.586c0,0.986-0.266,1.678-0.774,2.183
			c-0.854,0.815-2.296,0.847-2.423,0.847h-5.441l9.051,12.912h4.583L74.373,22.822z"/>
		<path fill="#FF5000" d="M146.501,7.682c-1.573,1.576-3.731,1.971-4.821,0.885c-1.087-1.088-0.688-3.248,0.885-4.82
			c1.576-1.575,3.733-1.973,4.822-0.885C148.475,3.949,148.078,6.107,146.501,7.682"/>
		<path fill="#FF5000" d="M144.583,13.706c-1.188-0.437-1.914-1.453-1.612-2.274c0.299-0.822,1.508-1.137,2.696-0.701
			c1.189,0.432,1.914,1.449,1.615,2.271C146.982,13.824,145.775,14.139,144.583,13.706"/>
		<path fill="#FF5000" d="M141.066,2.299c0,1.27-0.709,2.299-1.586,2.299s-1.588-1.029-1.588-2.299S138.603,0,139.48,0
			S141.066,1.029,141.066,2.299"/>
	</g>
	<g>
		<path d="M171.556,9.99h-2.012c-0.082-1.604-0.656-2.83-1.725-3.674s-2.506-1.266-4.314-1.266c-1.707,0-3.039,0.355-3.993,1.066
			c-0.956,0.713-1.433,1.719-1.433,3.02c0,0.469,0.055,0.881,0.168,1.234c0.109,0.355,0.313,0.666,0.608,0.931
			c0.294,0.265,0.567,0.483,0.823,0.655c0.254,0.174,0.664,0.347,1.234,0.52c0.567,0.172,1.025,0.305,1.371,0.396
			c0.346,0.091,0.896,0.219,1.647,0.382c0.813,0.183,1.473,0.335,1.979,0.456c0.51,0.123,1.088,0.285,1.738,0.488
			s1.174,0.406,1.571,0.609c0.396,0.203,0.808,0.457,1.233,0.763c0.428,0.305,0.752,0.641,0.978,1.004
			c0.223,0.367,0.411,0.799,0.563,1.299c0.151,0.496,0.229,1.051,0.229,1.66c0,1.484-0.411,2.725-1.235,3.721
			c-0.823,0.996-1.823,1.688-3.004,2.072c-1.179,0.387-2.489,0.58-3.933,0.58c-2.704,0-4.822-0.66-6.357-1.982
			c-1.535-1.32-2.302-3.141-2.302-5.457v-0.184h1.981c0,1.973,0.604,3.455,1.813,4.451s2.882,1.494,5.017,1.494
			c1.869,0,3.344-0.395,4.42-1.188c1.078-0.793,1.617-1.893,1.617-3.293c0-1.361-0.514-2.334-1.539-2.912
			c-1.027-0.58-2.963-1.205-5.81-1.875c-0.915-0.203-1.591-0.366-2.026-0.488c-0.438-0.122-1.022-0.335-1.755-0.64
			c-0.731-0.305-1.276-0.637-1.631-0.991s-0.676-0.839-0.96-1.448c-0.285-0.609-0.428-1.32-0.428-2.135
			c0-1.829,0.676-3.277,2.027-4.345c1.351-1.068,3.195-1.601,5.533-1.601c2.357,0,4.238,0.563,5.641,1.691
			C170.701,6.134,171.455,7.796,171.556,9.99z"/>
		<path d="M177.837,3.74v21.708h-2.073V3.74H177.837z"/>
		<path d="M182.35,3.74h7.866c3.252,0,5.681,0.94,7.287,2.82c1.604,1.881,2.408,4.426,2.408,7.639c0,3.292-0.783,5.99-2.349,8.095
			c-1.565,2.104-3.953,3.154-7.165,3.154h-8.049L182.35,3.74L182.35,3.74z M184.423,5.508v18.173h5.457
			c5.307,0,7.957-3.119,7.957-9.361c0-2.764-0.654-4.924-1.965-6.479c-1.313-1.555-3.197-2.333-5.656-2.333L184.423,5.508
			L184.423,5.508z"/>
		<path d="M211.864,3.68l8.66,21.769h-2.288l-2.621-6.83h-9.939l-2.653,6.83h-2.226l8.781-21.769H211.864z M214.975,16.943
			l-4.271-11.312l-4.39,11.312H214.975z"/>
		<path d="M222.475,3.74h9.817c2.054,0,3.693,0.482,4.924,1.449c1.229,0.965,1.846,2.435,1.846,4.404
			c0,1.402-0.371,2.566-1.113,3.492c-0.742,0.925-1.783,1.55-3.125,1.875c1.321,0.242,2.262,0.748,2.82,1.509
			s0.891,1.895,0.99,3.398c0,0.041,0.011,0.314,0.031,0.822c0.02,0.51,0.045,0.947,0.076,1.313c0.029,0.365,0.08,0.805,0.151,1.313
			s0.173,0.945,0.306,1.311s0.289,0.641,0.473,0.822h-2.348c-0.185-0.223-0.316-0.617-0.396-1.188
			c-0.081-0.568-0.143-1.301-0.184-2.195s-0.061-1.373-0.061-1.434c-0.145-1.973-0.621-3.277-1.434-3.918
			c-0.813-0.641-2.258-0.961-4.33-0.961h-6.373v9.695h-2.072L222.475,3.74L222.475,3.74z M224.548,5.508v8.6h6.129
			c0.894,0,1.666-0.051,2.316-0.152c0.649-0.102,1.305-0.295,1.967-0.579c0.66-0.284,1.168-0.736,1.524-1.356
			c0.354-0.619,0.533-1.388,0.533-2.302c0-2.806-1.8-4.209-5.397-4.209L224.548,5.508L224.548,5.508z"/>
	</g>
</g>
</svg>
