<?xml version="1.0" encoding="utf-8"?>
<!-- Generator: Adobe Illustrator 16.0.0, SVG Export Plug-In . SVG Version: 6.00 Build 0)  -->
<!DOCTYPE svg PUBLIC "-//W3C//DTD SVG 1.1//EN" "http://www.w3.org/Graphics/SVG/1.1/DTD/svg11.dtd">
<svg version="1.1" id="Layer_1" xmlns="http://www.w3.org/2000/svg" xmlns:xlink="http://www.w3.org/1999/xlink" x="0px" y="0px"
	 width="150px" height="27px" viewBox="0 0 150 27" enable-background="new 0 0 150 27" xml:space="preserve">
<g>
	<rect x="1" y="4.024" width="4.107" height="22.435"/>
	<polygon points="29.091,4.026 29.091,26.459 25.403,26.459 12.996,10.551 12.996,26.459 8.891,26.459 8.891,4.026 13.112,4.026 
		25.096,19.383 25.096,4.026 	"/>
	<path d="M52.743,10.648c-0.519-1.225-1.283-2.305-2.236-3.218c-3.551-3.343-8.871-3.405-9.762-3.405h-7.277v22.437h7.393
		c1.081,0,6.232-0.19,9.677-3.471c0.954-0.91,1.686-1.99,2.205-3.217c0.572-1.33,0.858-2.871,0.858-4.517
		C53.602,13.55,53.315,12.011,52.743,10.648 M49.086,18.214c-0.297,0.702-0.742,1.341-1.304,1.896
		c-2.48,2.368-6.688,2.317-6.805,2.317h-3.221V7.823h3.221c0.033,0,1.071-0.031,2.459,0.23c1.272,0.241,3.021,0.795,4.314,2.021
		c0.561,0.524,1.007,1.194,1.304,1.929c0.381,0.847,0.562,2.111,0.562,3.253C49.617,16.37,49.436,17.365,49.086,18.214"/>
	<path d="M114.963,19.727l2.681,2.642c-0.823,1-1.823,1.848-2.959,2.504c-1.758,1.021-3.759,1.586-5.793,1.586
		c-1.555,0-3.03-0.318-4.429-0.903c-1.383-0.562-2.605-1.362-3.635-2.425c-1.058-1.024-1.875-2.241-2.436-3.6
		c-0.596-1.404-0.904-2.859-0.904-4.389c0-1.556,0.309-3.01,0.904-4.414c0.561-1.364,1.378-2.583,2.436-3.601
		c1.029-1.06,2.252-1.869,3.635-2.423c0.713-0.299,1.449-0.527,2.208-0.683c0.716-0.143,1.464-0.217,2.221-0.217
		c0.455,0,0.915,0.031,1.368,0.086c1.309,0.151,2.576,0.525,3.758,1.121c1.535,0.773,2.556,1.509,3.626,2.873l-2.681,2.627
		c-0.697-0.9-1.596-1.643-2.627-2.177c-1.102-0.527-2.253-0.803-3.444-0.803c-2.065,0-3.964,0.772-5.402,2.236
		c-1.465,1.424-2.252,3.323-2.252,5.374c0,2.024,0.787,3.924,2.252,5.348c1.438,1.464,3.337,2.236,5.402,2.236
		c1.349,0,2.717-0.373,3.884-1.049C113.629,21.161,114.371,20.505,114.963,19.727"/>
	<path d="M141.206,10.749c-0.565-1.358-1.413-2.574-2.461-3.595c-1.069-1.062-2.295-1.866-3.657-2.421
		c-1.426-0.586-2.935-0.896-4.485-0.896c-1.54,0-3.06,0.309-4.475,0.896c-1.362,0.555-2.599,1.359-3.668,2.421
		c-1.037,1.021-1.865,2.236-2.463,3.595c-0.597,1.403-0.879,2.856-0.879,4.38c0,1.555,0.282,3.008,0.879,4.408
		c0.598,1.36,1.426,2.575,2.463,3.595c1.069,1.063,2.306,1.866,3.668,2.423c1.415,0.587,2.935,0.906,4.475,0.906
		c1.551,0,3.06-0.319,4.485-0.906c1.362-0.557,2.588-1.36,3.657-2.423c1.048-1.02,1.896-2.234,2.461-3.595
		c0.608-1.4,0.923-2.854,0.923-4.408C142.129,13.604,141.814,12.151,141.206,10.749 M136.063,20.496
		c-1.446,1.462-3.406,2.236-5.46,2.236s-4.003-0.774-5.46-2.236c-1.445-1.422-2.242-3.318-2.242-5.367
		c0-2.021,0.797-3.906,2.242-5.337c1.457-1.464,3.406-2.237,5.46-2.237s4.014,0.772,5.46,2.237c1.456,1.431,2.272,3.316,2.272,5.337
		C138.335,17.178,137.519,19.074,136.063,20.496"/>
	<path d="M88.732,4.026h-4.475l-8.09,18.741l-1.602,3.691h4.293l2.09-4.727h11.227l2.056,4.727h4.202L88.732,4.026z M82.43,18.348
		l4.131-9.508l4.146,9.508H82.43z"/>
	<path d="M75.373,23.36l-4.36-6.521c0.951-0.22,2.137-0.7,3.121-1.645c0.572-0.566,1.027-1.196,1.313-1.958
		c0.315-0.788,0.509-1.699,0.509-2.717c0-2.585-1.25-4.64-3.474-5.709c-1.566-0.752-3.068-0.788-3.257-0.788H55.964v22.437h4.148
		V7.494h9.08c0.062,0,0.93,0.033,1.758,0.441c1.014,0.503,1.501,1.33,1.501,2.585c0,0.988-0.266,1.679-0.774,2.183
		c-0.854,0.815-2.296,0.847-2.423,0.847h-5.441l9.051,12.911h4.583L75.373,23.36z"/>
	<path fill="#FF5000" d="M147.502,8.22c-1.574,1.576-3.733,1.971-4.822,0.885c-1.086-1.089-0.689-3.248,0.884-4.822
		c1.576-1.575,3.734-1.971,4.822-0.884C149.475,4.487,149.078,6.646,147.502,8.22"/>
	<path fill="#FF5000" d="M145.584,14.243c-1.19-0.435-1.914-1.453-1.614-2.274c0.3-0.823,1.508-1.137,2.697-0.703
		c1.191,0.433,1.914,1.451,1.615,2.271C147.982,14.361,146.775,14.677,145.584,14.243"/>
	<path fill="#FF5000" d="M142.067,2.837c0,1.27-0.71,2.299-1.587,2.299s-1.588-1.029-1.588-2.299c0-1.27,0.711-2.299,1.588-2.299
		S142.067,1.568,142.067,2.837"/>
</g>
</svg>
