<?xml version="1.0" encoding="utf-8"?>
<!-- Generator: Adobe Illustrator 16.0.0, SVG Export Plug-In . SVG Version: 6.00 Build 0)  -->
<!DOCTYPE svg PUBLIC "-//W3C//DTD SVG 1.1//EN" "http://www.w3.org/Graphics/SVG/1.1/DTD/svg11.dtd">
<svg version="1.1" id="Layer_1" xmlns="http://www.w3.org/2000/svg" xmlns:xlink="http://www.w3.org/1999/xlink" x="0px" y="0px"
	 width="239.671px" height="29.206px" viewBox="1 0.538 239.671 29.206" enable-background="new 1 0.538 239.671 29.206"
	 xml:space="preserve">
<g>
	<g>
		<rect x="1" y="124.543" width="4.107" height="22.435"/>
		<polygon points="29.091,124.545 29.091,146.978 25.403,146.978 12.996,131.069 12.996,146.978 8.891,146.978 8.891,124.545 
			13.112,124.545 25.096,139.901 25.096,124.545 		"/>
		<path d="M52.743,131.166c-0.519-1.225-1.283-2.305-2.236-3.217c-3.551-3.344-8.871-3.406-9.762-3.406h-7.277v22.438h7.393
			c1.081,0,6.232-0.19,9.677-3.471c0.954-0.91,1.686-1.99,2.205-3.218c0.572-1.33,0.858-2.871,0.858-4.517
			C53.602,134.068,53.315,132.529,52.743,131.166 M49.086,138.732c-0.297,0.702-0.742,1.341-1.304,1.896
			c-2.48,2.369-6.688,2.317-6.805,2.317h-3.221v-14.604h3.221c0.033,0,1.071-0.031,2.459,0.23c1.272,0.24,3.021,0.795,4.314,2.021
			c0.561,0.524,1.007,1.194,1.304,1.929c0.381,0.848,0.562,2.111,0.562,3.253C49.617,136.889,49.436,137.884,49.086,138.732"/>
		<path d="M114.963,140.245l2.682,2.643c-0.824,1-1.824,1.848-2.959,2.504c-1.759,1.021-3.76,1.586-5.793,1.586
			c-1.556,0-3.031-0.318-4.43-0.902c-1.383-0.563-2.605-1.363-3.635-2.426c-1.059-1.023-1.875-2.24-2.436-3.6
			c-0.597-1.404-0.904-2.859-0.904-4.389c0-1.557,0.309-3.011,0.904-4.415c0.561-1.363,1.377-2.582,2.436-3.601
			c1.029-1.06,2.252-1.869,3.635-2.423c0.713-0.299,1.449-0.527,2.208-0.684c0.716-0.143,1.464-0.217,2.222-0.217
			c0.455,0,0.914,0.031,1.367,0.086c1.309,0.151,2.576,0.525,3.758,1.121c1.535,0.773,2.557,1.51,3.627,2.873l-2.682,2.627
			c-0.697-0.9-1.596-1.643-2.627-2.177c-1.102-0.526-2.253-0.803-3.443-0.803c-2.065,0-3.965,0.772-5.402,2.235
			c-1.465,1.424-2.252,3.323-2.252,5.374c0,2.024,0.787,3.924,2.252,5.349c1.438,1.464,3.337,2.235,5.402,2.235
			c1.349,0,2.717-0.373,3.883-1.049C113.629,141.68,114.371,141.023,114.963,140.245"/>
		<path d="M141.206,131.268c-0.565-1.357-1.413-2.574-2.461-3.596c-1.069-1.062-2.295-1.865-3.657-2.42
			c-1.426-0.586-2.936-0.896-4.484-0.896c-1.541,0-3.061,0.309-4.476,0.896c-1.362,0.555-2.599,1.358-3.668,2.42
			c-1.037,1.021-1.864,2.236-2.463,3.596c-0.597,1.402-0.879,2.855-0.879,4.38c0,1.555,0.282,3.008,0.879,4.408
			c0.599,1.359,1.426,2.574,2.463,3.595c1.069,1.063,2.306,1.866,3.668,2.423c1.415,0.588,2.935,0.906,4.476,0.906
			c1.551,0,3.06-0.318,4.484-0.906c1.362-0.557,2.588-1.359,3.657-2.423c1.048-1.021,1.896-2.233,2.461-3.595
			c0.608-1.4,0.923-2.854,0.923-4.408C142.129,134.123,141.814,132.67,141.206,131.268 M136.063,141.015
			c-1.445,1.462-3.405,2.236-5.459,2.236c-2.055,0-4.004-0.774-5.461-2.236c-1.444-1.422-2.242-3.318-2.242-5.367
			c0-2.021,0.798-3.905,2.242-5.337c1.457-1.464,3.406-2.236,5.461-2.236c2.054,0,4.014,0.771,5.459,2.236
			c1.457,1.432,2.272,3.316,2.272,5.337C138.335,137.696,137.52,139.593,136.063,141.015"/>
		<path d="M88.732,124.545h-4.476l-8.09,18.741l-1.602,3.69h4.292l2.091-4.728h11.227l2.056,4.728h4.203L88.732,124.545z
			 M82.43,138.866l4.131-9.508l4.146,9.508H82.43z"/>
		<path d="M75.373,143.878l-4.36-6.521c0.951-0.22,2.137-0.7,3.121-1.646c0.572-0.565,1.027-1.195,1.313-1.958
			c0.315-0.787,0.509-1.698,0.509-2.717c0-2.584-1.25-4.64-3.474-5.709c-1.566-0.752-3.068-0.787-3.257-0.787H55.964v22.437h4.148
			v-18.965h9.08c0.062,0,0.93,0.032,1.758,0.44c1.014,0.504,1.501,1.33,1.501,2.586c0,0.987-0.266,1.679-0.774,2.183
			c-0.854,0.815-2.296,0.847-2.423,0.847h-5.441l9.051,12.911h4.583L75.373,143.878z"/>
		<path fill="#FF5000" d="M147.502,128.738c-1.574,1.576-3.732,1.971-4.822,0.885c-1.086-1.088-0.688-3.248,0.885-4.821
			c1.576-1.575,3.733-1.972,4.822-0.884C149.475,125.006,149.078,127.164,147.502,128.738"/>
		<path fill="#FF5000" d="M145.584,134.762c-1.189-0.436-1.914-1.453-1.613-2.274c0.299-0.823,1.508-1.137,2.696-0.702
			c1.19,0.433,1.914,1.45,1.615,2.271C147.982,134.88,146.775,135.195,145.584,134.762"/>
		<path fill="#FF5000" d="M142.066,123.355c0,1.27-0.709,2.299-1.586,2.299s-1.588-1.029-1.588-2.299s0.711-2.299,1.588-2.299
			S142.066,122.086,142.066,123.355"/>
	</g>
	<g>
		<path d="M172.556,131.047h-2.012c-0.082-1.605-0.656-2.83-1.724-3.674s-2.506-1.266-4.314-1.266c-1.708,0-3.039,0.356-3.994,1.067
			c-0.956,0.712-1.433,1.718-1.433,3.019c0,0.469,0.055,0.88,0.168,1.235c0.11,0.355,0.314,0.666,0.609,0.93
			c0.294,0.265,0.568,0.483,0.823,0.655c0.254,0.174,0.665,0.347,1.234,0.52c0.568,0.172,1.026,0.305,1.372,0.396
			s0.895,0.219,1.647,0.382c0.813,0.183,1.473,0.335,1.98,0.456c0.509,0.123,1.088,0.285,1.738,0.489
			c0.651,0.203,1.174,0.405,1.571,0.609c0.396,0.203,0.808,0.457,1.234,0.763c0.427,0.304,0.752,0.64,0.977,1.005
			c0.223,0.366,0.411,0.798,0.563,1.297c0.152,0.498,0.229,1.052,0.229,1.661c0,1.484-0.411,2.724-1.235,3.72
			c-0.823,0.997-1.824,1.688-3.004,2.073c-1.179,0.387-2.489,0.58-3.933,0.58c-2.704,0-4.822-0.66-6.357-1.982
			c-1.535-1.32-2.302-3.14-2.302-5.458v-0.183h1.982c0,1.972,0.604,3.456,1.813,4.451c1.209,0.996,2.882,1.495,5.016,1.495
			c1.87,0,3.344-0.396,4.421-1.189c1.078-0.793,1.617-1.891,1.617-3.293c0-1.361-0.514-2.333-1.54-2.912
			c-1.027-0.579-2.963-1.204-5.809-1.875c-0.915-0.203-1.591-0.366-2.027-0.488c-0.438-0.122-1.022-0.335-1.754-0.64
			c-0.732-0.305-1.276-0.636-1.631-0.991c-0.355-0.355-0.676-0.839-0.96-1.448c-0.285-0.61-0.428-1.321-0.428-2.135
			c0-1.829,0.676-3.277,2.027-4.345s3.196-1.601,5.534-1.601c2.357,0,4.238,0.563,5.641,1.692
			C171.701,127.19,172.454,128.852,172.556,131.047z"/>
		<path d="M178.837,124.797v21.709h-2.073v-21.709H178.837z"/>
		<path d="M183.35,124.797h7.866c3.252,0,5.681,0.94,7.287,2.82c1.605,1.881,2.409,4.426,2.409,7.639
			c0,3.293-0.783,5.99-2.349,8.095c-1.565,2.104-3.953,3.155-7.165,3.155h-8.049V124.797z M185.423,126.564v18.174h5.458
			c5.306,0,7.957-3.12,7.957-9.361c0-2.764-0.655-4.924-1.966-6.479c-1.312-1.555-3.197-2.333-5.656-2.333H185.423z"/>
		<path d="M212.864,124.736l8.66,21.77h-2.288l-2.621-6.83h-9.94l-2.653,6.83h-2.226l8.782-21.77H212.864z M215.975,137.999
			l-4.27-11.312l-4.39,11.312H215.975z"/>
		<path d="M223.475,124.797h9.817c2.054,0,3.694,0.482,4.925,1.448c1.229,0.966,1.845,2.435,1.845,4.405
			c0,1.402-0.371,2.566-1.113,3.492c-0.742,0.925-1.783,1.55-3.125,1.875c1.321,0.243,2.261,0.747,2.82,1.509
			c0.559,0.763,0.89,1.896,0.991,3.399c0,0.042,0.01,0.315,0.03,0.823c0.02,0.51,0.046,0.946,0.076,1.312
			c0.03,0.366,0.081,0.804,0.152,1.312s0.173,0.945,0.305,1.311c0.133,0.366,0.29,0.641,0.473,0.823h-2.348
			c-0.184-0.224-0.315-0.619-0.396-1.188c-0.081-0.568-0.143-1.302-0.183-2.196c-0.041-0.894-0.061-1.372-0.061-1.433
			c-0.144-1.972-0.621-3.277-1.434-3.918c-0.813-0.641-2.257-0.961-4.33-0.961h-6.372v9.696h-2.073V124.797z M225.548,126.564v8.6
			h6.129c0.894,0,1.666-0.051,2.316-0.153c0.65-0.102,1.306-0.294,1.968-0.579c0.66-0.284,1.168-0.736,1.524-1.357
			c0.355-0.619,0.533-1.387,0.533-2.301c0-2.806-1.8-4.209-5.397-4.209H225.548z"/>
	</g>
</g>
<g>
	<g>
		<rect x="1" y="4.024" width="4.107" height="22.435"/>
		<polygon points="29.091,4.026 29.091,26.459 25.403,26.459 12.996,10.551 12.996,26.459 8.891,26.459 8.891,4.026 13.112,4.026 
			25.096,19.383 25.096,4.026 		"/>
		<path d="M52.743,10.648c-0.519-1.225-1.283-2.305-2.236-3.218c-3.551-3.343-8.871-3.405-9.762-3.405h-7.277v22.437h7.393
			c1.081,0,6.232-0.19,9.677-3.471c0.954-0.91,1.686-1.99,2.205-3.218c0.572-1.33,0.858-2.871,0.858-4.517
			C53.602,13.55,53.315,12.011,52.743,10.648 M49.086,18.214c-0.297,0.702-0.742,1.341-1.304,1.896
			c-2.48,2.369-6.688,2.317-6.805,2.317h-3.221V7.823h3.221c0.033,0,1.071-0.031,2.459,0.23c1.272,0.241,3.021,0.795,4.314,2.021
			c0.561,0.524,1.007,1.194,1.304,1.929c0.381,0.847,0.562,2.111,0.562,3.253C49.617,16.37,49.436,17.365,49.086,18.214"/>
		<path d="M114.963,19.727l2.682,2.643c-0.824,1-1.824,1.848-2.959,2.504c-1.759,1.021-3.76,1.586-5.793,1.586
			c-1.556,0-3.031-0.318-4.43-0.902c-1.383-0.563-2.605-1.363-3.635-2.426c-1.059-1.023-1.875-2.24-2.436-3.6
			c-0.597-1.404-0.904-2.859-0.904-4.389c0-1.557,0.309-3.011,0.904-4.415c0.561-1.364,1.377-2.583,2.436-3.601
			c1.029-1.06,2.252-1.869,3.635-2.423c0.713-0.299,1.449-0.527,2.208-0.683c0.716-0.143,1.464-0.217,2.222-0.217
			c0.455,0,0.914,0.031,1.367,0.086c1.309,0.151,2.576,0.525,3.758,1.121c1.535,0.773,2.557,1.509,3.627,2.873l-2.682,2.627
			c-0.697-0.9-1.596-1.643-2.627-2.177c-1.102-0.527-2.253-0.803-3.443-0.803c-2.065,0-3.965,0.772-5.402,2.236
			c-1.465,1.424-2.252,3.323-2.252,5.374c0,2.024,0.787,3.924,2.252,5.349c1.438,1.464,3.337,2.235,5.402,2.235
			c1.349,0,2.717-0.373,3.883-1.049C113.629,21.161,114.371,20.505,114.963,19.727"/>
		<path d="M141.206,10.749c-0.565-1.358-1.413-2.574-2.461-3.595c-1.069-1.062-2.295-1.866-3.657-2.421
			c-1.426-0.586-2.936-0.896-4.484-0.896c-1.541,0-3.061,0.309-4.476,0.896c-1.362,0.555-2.599,1.359-3.668,2.421
			c-1.037,1.021-1.864,2.236-2.463,3.595c-0.597,1.403-0.879,2.856-0.879,4.38c0,1.555,0.282,3.008,0.879,4.408
			c0.599,1.359,1.426,2.574,2.463,3.595c1.069,1.063,2.306,1.866,3.668,2.423c1.415,0.588,2.935,0.906,4.476,0.906
			c1.551,0,3.06-0.318,4.484-0.906c1.362-0.557,2.588-1.359,3.657-2.423c1.048-1.021,1.896-2.233,2.461-3.595
			c0.608-1.4,0.923-2.854,0.923-4.408C142.129,13.604,141.814,12.151,141.206,10.749 M136.063,20.496
			c-1.445,1.462-3.405,2.236-5.459,2.236c-2.055,0-4.004-0.774-5.461-2.236c-1.444-1.422-2.242-3.318-2.242-5.367
			c0-2.021,0.798-3.906,2.242-5.337c1.457-1.464,3.406-2.237,5.461-2.237c2.054,0,4.014,0.772,5.459,2.237
			c1.457,1.431,2.272,3.316,2.272,5.337C138.335,17.178,137.52,19.074,136.063,20.496"/>
		<path d="M88.732,4.026h-4.476l-8.09,18.742l-1.602,3.69h4.292l2.091-4.728h11.227l2.056,4.728h4.203L88.732,4.026z M82.43,18.348
			l4.131-9.508l4.146,9.508H82.43z"/>
		<path d="M75.373,23.359l-4.36-6.521c0.951-0.22,2.137-0.7,3.121-1.646c0.572-0.565,1.027-1.195,1.313-1.958
			c0.315-0.788,0.509-1.699,0.509-2.717c0-2.585-1.25-4.64-3.474-5.709c-1.566-0.752-3.068-0.788-3.257-0.788H55.964v22.437h4.148
			V7.494h9.08c0.062,0,0.93,0.033,1.758,0.441c1.014,0.503,1.501,1.33,1.501,2.585c0,0.988-0.266,1.679-0.774,2.183
			c-0.854,0.815-2.296,0.847-2.423,0.847h-5.441l9.051,12.911h4.583L75.373,23.359z"/>
		<path fill="#FF5000" d="M147.502,8.22c-1.574,1.576-3.732,1.971-4.822,0.885c-1.086-1.089-0.688-3.248,0.885-4.822
			c1.576-1.575,3.733-1.971,4.822-0.884C149.475,4.487,149.078,6.646,147.502,8.22"/>
		<path fill="#FF5000" d="M145.584,14.243c-1.189-0.435-1.914-1.453-1.613-2.274c0.299-0.823,1.508-1.137,2.696-0.703
			c1.19,0.433,1.914,1.451,1.615,2.271C147.982,14.361,146.775,14.677,145.584,14.243"/>
		<path fill="#FF5000" d="M142.066,2.837c0,1.27-0.709,2.299-1.586,2.299s-1.588-1.029-1.588-2.299s0.711-2.299,1.588-2.299
			S142.066,1.568,142.066,2.837"/>
	</g>
	<g>
		<path d="M172.563,10.488h-1.309c-0.223-3.652-2.498-5.479-6.82-5.479c-1.91,0-3.402,0.399-4.478,1.202
			c-1.076,0.803-1.613,1.913-1.613,3.333c0,0.63,0.111,1.18,0.334,1.646c0.224,0.468,0.519,0.852,0.883,1.157
			c0.366,0.305,0.842,0.574,1.432,0.808c0.59,0.232,1.192,0.426,1.813,0.577c0.619,0.154,1.346,0.32,2.178,0.503
			c0.446,0.082,0.781,0.151,1.004,0.214c0.691,0.163,1.182,0.279,1.477,0.349c0.295,0.072,0.751,0.204,1.371,0.396
			c0.619,0.193,1.08,0.37,1.385,0.533c0.305,0.164,0.677,0.396,1.113,0.701c0.436,0.303,0.761,0.622,0.974,0.959
			c0.213,0.335,0.401,0.751,0.563,1.247c0.164,0.498,0.245,1.041,0.245,1.631c0,1.928-0.721,3.439-2.163,4.537
			c-1.442,1.096-3.43,1.644-5.968,1.644c-2.661,0-4.756-0.64-6.29-1.919c-1.531-1.278-2.297-3.187-2.297-5.725h1.246
			c0.043,2.193,0.707,3.832,1.995,4.92c1.289,1.085,3.091,1.628,5.405,1.628c2.132,0,3.797-0.441,4.996-1.326
			c1.197-0.882,1.797-2.116,1.797-3.7c0-0.466-0.072-0.892-0.213-1.278c-0.145-0.384-0.311-0.719-0.503-1.004
			c-0.193-0.285-0.479-0.548-0.853-0.793c-0.377-0.242-0.707-0.436-0.992-0.577c-0.282-0.142-0.684-0.29-1.201-0.441
			c-0.519-0.153-0.91-0.26-1.173-0.319c-0.265-0.063-0.676-0.153-1.233-0.275c-0.558-0.121-0.93-0.203-1.11-0.243
			c-2.256-0.527-3.747-0.954-4.479-1.278c-2.029-0.914-3.043-2.426-3.043-4.538c0-1.767,0.664-3.162,1.992-4.188
			c1.331-1.023,3.162-1.537,5.497-1.537c2.376,0,4.274,0.548,5.694,1.644C171.642,6.593,172.422,8.256,172.563,10.488z"/>
		<path d="M177.619,4.308V25.99h-1.312V4.308H177.619z"/>
		<path d="M181.485,4.308h7.311c3.207,0,5.652,0.935,7.338,2.801c1.686,1.868,2.528,4.436,2.528,7.705
			c0,3.37-0.809,6.076-2.422,8.116c-1.613,2.039-4.086,3.061-7.415,3.061h-7.34V4.308z M182.796,5.465v19.368h5.573
			c5.988,0,8.981-3.309,8.981-9.928c0-2.922-0.709-5.227-2.131-6.912c-1.42-1.686-3.584-2.528-6.485-2.528H182.796z"/>
		<path d="M209.655,4.308l8.616,21.683h-1.462l-2.709-7.004h-10.445l-2.771,7.004h-1.433l8.8-21.683H209.655z M213.675,17.889
			l-3.96-10.049c-0.102-0.243-0.238-0.627-0.412-1.158c-0.171-0.527-0.3-0.901-0.379-1.125l-0.822,2.191l-4.05,10.141H213.675z"/>
		<path d="M219.855,4.308h8.924c1.948,0,3.45,0.335,4.506,1.004c1.604,1.078,2.406,2.662,2.406,4.751
			c0,1.442-0.416,2.64-1.249,3.594c-0.833,0.956-1.948,1.563-3.349,1.828c1.115,0.182,2.011,0.514,2.68,0.989
			c0.669,0.479,1.105,1.264,1.309,2.359c0.124,0.651,0.213,1.66,0.274,3.03c0.063,1.371,0.161,2.401,0.306,3.091
			c0.059,0.305,0.203,0.649,0.426,1.036h-1.462c-0.122-0.184-0.224-0.477-0.305-0.883c-0.04-0.285-0.082-0.721-0.122-1.311
			c-0.039-0.588-0.076-1.217-0.106-1.889c-0.029-0.669-0.057-1.085-0.077-1.246c-0.141-1.908-0.674-3.157-1.598-3.747
			c-0.925-0.588-2.432-0.883-4.523-0.883h-6.729v9.958h-1.311V4.308z M221.166,5.436v9.499h6.548c0.731,0,1.391-0.035,1.978-0.106
			c0.59-0.069,1.189-0.206,1.797-0.409c0.609-0.203,1.117-0.479,1.524-0.822c0.406-0.345,0.735-0.813,0.988-1.4
			c0.256-0.59,0.382-1.281,0.382-2.072c0-1.744-0.659-3.025-1.98-3.836c-0.934-0.57-2.284-0.853-4.049-0.853H221.166z"/>
	</g>
</g>
<g>
	<g>
		<rect x="1" y="81.191" width="4.107" height="22.435"/>
		<polygon points="29.091,81.193 29.091,103.626 25.403,103.626 12.996,87.718 12.996,103.626 8.891,103.626 8.891,81.193 
			13.112,81.193 25.096,96.55 25.096,81.193 		"/>
		<path d="M52.743,87.814c-0.519-1.225-1.283-2.305-2.236-3.217c-3.551-3.344-8.871-3.406-9.762-3.406h-7.277v22.438h7.393
			c1.081,0,6.232-0.19,9.677-3.471c0.954-0.91,1.686-1.99,2.205-3.218c0.572-1.33,0.858-2.871,0.858-4.517
			C53.602,90.717,53.315,89.178,52.743,87.814 M49.086,95.381c-0.297,0.702-0.742,1.341-1.304,1.896
			c-2.48,2.369-6.688,2.317-6.805,2.317h-3.221V84.99h3.221c0.033,0,1.071-0.031,2.459,0.23c1.272,0.24,3.021,0.795,4.314,2.021
			c0.561,0.524,1.007,1.194,1.304,1.929c0.381,0.848,0.562,2.111,0.562,3.253C49.617,93.537,49.436,94.532,49.086,95.381"/>
		<path d="M114.963,96.894l2.682,2.643c-0.824,1-1.824,1.848-2.959,2.504c-1.759,1.021-3.76,1.586-5.793,1.586
			c-1.556,0-3.031-0.318-4.43-0.902c-1.383-0.563-2.605-1.363-3.635-2.426c-1.059-1.023-1.875-2.24-2.436-3.6
			c-0.597-1.404-0.904-2.859-0.904-4.389c0-1.557,0.309-3.011,0.904-4.415c0.561-1.363,1.377-2.582,2.436-3.601
			c1.029-1.06,2.252-1.869,3.635-2.423c0.713-0.299,1.449-0.527,2.208-0.684c0.716-0.143,1.464-0.217,2.222-0.217
			c0.455,0,0.914,0.031,1.367,0.086c1.309,0.151,2.576,0.525,3.758,1.121c1.535,0.773,2.557,1.51,3.627,2.873l-2.682,2.627
			c-0.697-0.9-1.596-1.643-2.627-2.177c-1.102-0.526-2.253-0.803-3.443-0.803c-2.065,0-3.965,0.772-5.402,2.235
			c-1.465,1.424-2.252,3.323-2.252,5.374c0,2.024,0.787,3.924,2.252,5.349c1.438,1.464,3.337,2.235,5.402,2.235
			c1.349,0,2.717-0.373,3.883-1.049C113.629,98.328,114.371,97.672,114.963,96.894"/>
		<path d="M141.206,87.916c-0.565-1.357-1.413-2.574-2.461-3.596c-1.069-1.062-2.295-1.865-3.657-2.42
			c-1.426-0.586-2.936-0.896-4.484-0.896c-1.541,0-3.061,0.309-4.476,0.896c-1.362,0.555-2.599,1.358-3.668,2.42
			c-1.037,1.021-1.864,2.236-2.463,3.596c-0.597,1.402-0.879,2.855-0.879,4.38c0,1.555,0.282,3.008,0.879,4.408
			c0.599,1.359,1.426,2.574,2.463,3.595c1.069,1.063,2.306,1.866,3.668,2.423c1.415,0.588,2.935,0.906,4.476,0.906
			c1.551,0,3.06-0.318,4.484-0.906c1.362-0.557,2.588-1.359,3.657-2.423c1.048-1.021,1.896-2.233,2.461-3.595
			c0.608-1.4,0.923-2.854,0.923-4.408C142.129,90.771,141.814,89.318,141.206,87.916 M136.063,97.663
			c-1.445,1.462-3.405,2.236-5.459,2.236c-2.055,0-4.004-0.774-5.461-2.236c-1.444-1.422-2.242-3.318-2.242-5.367
			c0-2.021,0.798-3.905,2.242-5.337c1.457-1.464,3.406-2.236,5.461-2.236c2.054,0,4.014,0.771,5.459,2.236
			c1.457,1.432,2.272,3.316,2.272,5.337C138.335,94.345,137.52,96.241,136.063,97.663"/>
		<path d="M88.732,81.193h-4.476l-8.09,18.741l-1.602,3.69h4.292l2.091-4.728h11.227l2.056,4.728h4.203L88.732,81.193z
			 M82.43,95.515l4.131-9.508l4.146,9.508H82.43z"/>
		<path d="M75.373,100.526l-4.36-6.521c0.951-0.22,2.137-0.7,3.121-1.646c0.572-0.565,1.027-1.195,1.313-1.958
			c0.315-0.787,0.509-1.698,0.509-2.717c0-2.584-1.25-4.64-3.474-5.709c-1.566-0.752-3.068-0.787-3.257-0.787H55.964v22.437h4.148
			V84.661h9.08c0.062,0,0.93,0.032,1.758,0.44c1.014,0.504,1.501,1.33,1.501,2.586c0,0.987-0.266,1.679-0.774,2.183
			c-0.854,0.815-2.296,0.847-2.423,0.847h-5.441l9.051,12.911h4.583L75.373,100.526z"/>
		<path fill="#FF5000" d="M147.502,85.387c-1.574,1.576-3.732,1.971-4.822,0.885c-1.086-1.088-0.688-3.248,0.885-4.821
			c1.576-1.575,3.733-1.972,4.822-0.884C149.475,81.654,149.078,83.813,147.502,85.387"/>
		<path fill="#FF5000" d="M145.584,91.41c-1.189-0.436-1.914-1.453-1.613-2.274c0.299-0.823,1.508-1.137,2.696-0.702
			c1.19,0.433,1.914,1.45,1.615,2.271C147.982,91.528,146.775,91.844,145.584,91.41"/>
		<path fill="#FF5000" d="M142.066,80.004c0,1.27-0.709,2.299-1.586,2.299s-1.588-1.029-1.588-2.299s0.711-2.299,1.588-2.299
			S142.066,78.734,142.066,80.004"/>
	</g>
	<g>
		<path d="M172.563,87.655h-1.309c-0.223-3.652-2.498-5.479-6.82-5.479c-1.91,0-3.402,0.399-4.478,1.202
			c-1.076,0.803-1.613,1.913-1.613,3.333c0,0.63,0.111,1.18,0.334,1.646c0.224,0.468,0.519,0.852,0.883,1.157
			c0.366,0.305,0.842,0.574,1.432,0.808c0.59,0.232,1.192,0.426,1.813,0.577c0.619,0.154,1.346,0.32,2.178,0.503
			c0.446,0.082,0.781,0.151,1.004,0.214c0.691,0.163,1.182,0.279,1.477,0.349c0.295,0.072,0.751,0.204,1.371,0.396
			c0.619,0.193,1.08,0.37,1.385,0.533c0.305,0.164,0.677,0.396,1.113,0.701c0.436,0.303,0.761,0.622,0.974,0.959
			c0.213,0.335,0.401,0.751,0.563,1.247c0.164,0.498,0.245,1.041,0.245,1.631c0,1.928-0.721,3.439-2.163,4.537
			c-1.442,1.096-3.43,1.644-5.968,1.644c-2.661,0-4.756-0.64-6.29-1.919c-1.531-1.278-2.297-3.187-2.297-5.725h1.246
			c0.043,2.193,0.707,3.832,1.995,4.92c1.289,1.085,3.091,1.628,5.405,1.628c2.132,0,3.797-0.441,4.996-1.326
			c1.197-0.882,1.797-2.116,1.797-3.7c0-0.466-0.072-0.892-0.213-1.278c-0.145-0.384-0.311-0.719-0.503-1.004
			c-0.193-0.285-0.479-0.548-0.853-0.793c-0.377-0.242-0.707-0.436-0.992-0.577c-0.282-0.142-0.684-0.29-1.201-0.441
			c-0.519-0.153-0.91-0.26-1.173-0.319c-0.265-0.063-0.676-0.153-1.233-0.275c-0.558-0.121-0.93-0.203-1.11-0.243
			c-2.256-0.527-3.747-0.954-4.479-1.278c-2.029-0.914-3.043-2.426-3.043-4.538c0-1.767,0.664-3.162,1.992-4.188
			c1.331-1.023,3.162-1.537,5.497-1.537c2.376,0,4.274,0.548,5.694,1.644C171.642,83.76,172.422,85.423,172.563,87.655z"/>
		<path d="M177.619,81.475v21.683h-1.312V81.475H177.619z"/>
		<path d="M181.485,81.475h7.311c3.207,0,5.652,0.935,7.338,2.801c1.686,1.868,2.528,4.436,2.528,7.705
			c0,3.37-0.809,6.076-2.422,8.116c-1.613,2.039-4.086,3.061-7.415,3.061h-7.34V81.475z M182.796,82.632V102h5.573
			c5.988,0,8.981-3.309,8.981-9.928c0-2.922-0.709-5.227-2.131-6.912c-1.42-1.686-3.584-2.528-6.485-2.528H182.796z"/>
		<path d="M209.655,81.475l8.616,21.683h-1.462l-2.709-7.004h-10.445l-2.771,7.004h-1.433l8.8-21.683H209.655z M213.675,95.056
			l-3.96-10.049c-0.102-0.243-0.238-0.627-0.412-1.158c-0.171-0.527-0.3-0.901-0.379-1.125l-0.822,2.191l-4.05,10.141H213.675z"/>
		<path d="M219.855,81.475h8.924c1.948,0,3.45,0.335,4.506,1.004c1.604,1.078,2.406,2.662,2.406,4.751
			c0,1.442-0.416,2.64-1.249,3.594c-0.833,0.956-1.948,1.563-3.349,1.828c1.115,0.182,2.011,0.514,2.68,0.989
			c0.669,0.479,1.105,1.264,1.309,2.359c0.124,0.651,0.213,1.66,0.274,3.03c0.063,1.371,0.161,2.401,0.306,3.091
			c0.059,0.305,0.203,0.649,0.426,1.036h-1.462c-0.122-0.184-0.224-0.477-0.305-0.883c-0.04-0.285-0.082-0.721-0.122-1.311
			c-0.039-0.588-0.076-1.217-0.106-1.889c-0.029-0.669-0.057-1.085-0.077-1.246c-0.141-1.908-0.674-3.157-1.598-3.747
			c-0.925-0.588-2.432-0.883-4.523-0.883h-6.729v9.958h-1.311V81.475z M221.166,82.603v9.499h6.548c0.731,0,1.391-0.035,1.978-0.106
			c0.59-0.069,1.189-0.206,1.797-0.409c0.609-0.203,1.117-0.479,1.524-0.822c0.406-0.345,0.735-0.813,0.988-1.4
			c0.256-0.59,0.382-1.281,0.382-2.072c0-1.744-0.659-3.025-1.98-3.836c-0.934-0.57-2.284-0.853-4.049-0.853H221.166z"/>
	</g>
</g>
</svg>
